<svg xmlns="http://www.w3.org/2000/svg" xmlns:xlink="http://www.w3.org/1999/xlink" width="500" zoomAndPan="magnify" viewBox="0 0 375 374.999991" height="500" preserveAspectRatio="xMidYMid meet" version="1.0"><defs><filter x="0%" y="0%" width="100%" height="100%" id="39f0a148fc"><feColorMatrix values="0 0 0 0 1 0 0 0 0 1 0 0 0 0 1 0 0 0 1 0" color-interpolation-filters="sRGB"/></filter><mask id="cec35bbce9"><g filter="url(#39f0a148fc)"><rect x="-37.5" width="450" fill="#000000" y="-37.499999" height="449.999989" fill-opacity="0.698"/></g></mask><clipPath id="0a6c3b71a9"><path d="M 0.589844 0.589844 L 270.589844 0.589844 L 270.589844 270.589844 L 0.589844 270.589844 Z M 0.589844 0.589844 " clip-rule="nonzero"/></clipPath><clipPath id="d87ce77774"><rect x="0" width="271" y="0" height="271"/></clipPath></defs><rect x="-37.5" width="450" fill="#ffffff" y="-37.499999" height="449.999989" fill-opacity="1"/><rect x="-37.5" width="450" fill="#ffffff" y="-37.499999" height="449.999989" fill-opacity="1"/><rect x="-37.5" width="450" fill="#ffffff" y="-37.499999" height="449.999989" fill-opacity="1"/><g mask="url(#cec35bbce9)"><g transform="matrix(1, 0, 0, 1, 52, 52)"><g clip-path="url(#d87ce77774)"><path fill="#2b46bd" d="M 148.421875 96.890625 C 153.609375 93.503906 155.066406 86.554688 151.679688 81.367188 C 148.292969 76.179688 141.34375 74.71875 136.15625 78.109375 C 130.96875 81.496094 129.511719 88.445312 132.898438 93.632812 C 136.285156 98.816406 143.234375 100.277344 148.421875 96.890625 " fill-opacity="1" fill-rule="nonzero"/><g clip-path="url(#0a6c3b71a9)"><path fill="#2b46bd" d="M 244.726562 56.132812 C 246.484375 51.859375 250.039062 43.996094 255.757812 34.761719 C 255.753906 34.761719 238.144531 48.4375 224.84375 70.515625 C 202.820312 107.078125 171.933594 154.691406 116.480469 122.644531 C 118.152344 120.992188 119.84375 119.34375 121.570312 117.71875 C 124.878906 114.601562 128.375 111.46875 131.996094 108.386719 C 139.3125 112.019531 148.003906 111.574219 155.019531 106.992188 C 156.175781 106.238281 157.269531 105.375 158.273438 104.433594 C 158.273438 104.429688 158.273438 104.433594 158.273438 104.429688 C 166.480469 96.699219 167.957031 84.222656 161.78125 74.769531 C 154.761719 64.019531 140.308594 60.988281 129.558594 68.007812 C 128.402344 68.761719 127.308594 69.625 126.308594 70.5625 C 122.453125 74.199219 119.992188 78.960938 119.25 84.167969 C 112.917969 88.898438 106.734375 93.90625 100.753906 99.132812 C 105.835938 25.027344 169.816406 20.066406 213.972656 25.671875 C 191.871094 9.878906 164.816406 0.589844 135.589844 0.589844 C 61.03125 0.589844 0.589844 61.03125 0.589844 135.589844 C 0.589844 164.566406 9.722656 191.40625 25.261719 213.402344 C 38.382812 177.820312 62.191406 141.640625 95.417969 110.332031 C 104.570312 101.710938 114.054688 93.839844 123.742188 86.707031 C 123.996094 80.933594 126.925781 75.359375 132.136719 71.953125 C 140.722656 66.347656 152.226562 68.761719 157.832031 77.347656 C 163.4375 85.933594 161.023438 97.4375 152.4375 103.042969 C 145.859375 107.34375 137.558594 106.921875 131.519531 102.621094 C 127.058594 106.335938 122.652344 110.214844 118.332031 114.285156 C 79.289062 151.074219 54.207031 195.09375 45.464844 236.089844 C 48.289062 238.625 51.222656 241.035156 54.25 243.324219 C 56.617188 245.113281 59.039062 246.832031 61.523438 248.460938 C 63.4375 215.851562 80.359375 178.765625 110.011719 147.101562 C 82.609375 182.285156 69.109375 221.644531 71.945312 254.667969 C 90.90625 264.824219 112.574219 270.585938 135.589844 270.585938 C 210.144531 270.585938 270.585938 210.144531 270.585938 135.589844 C 270.585938 105.882812 260.984375 78.425781 244.726562 56.132812 " fill-opacity="1" fill-rule="nonzero"/></g></g></g></g></svg>