<svg xmlns="http://www.w3.org/2000/svg" xmlns:xlink="http://www.w3.org/1999/xlink" width="150" zoomAndPan="magnify" viewBox="0 0 112.5 30.000001" height="40" preserveAspectRatio="xMidYMid meet" version="1.0"><defs><filter x="0%" y="0%" width="100%" height="100%" id="34859a4e64"><feColorMatrix values="0 0 0 0 1 0 0 0 0 1 0 0 0 0 1 0 0 0 1 0" color-interpolation-filters="sRGB"/></filter><g/><mask id="c758c286e6"><g filter="url(#34859a4e64)"><rect x="-11.25" width="135" fill="#000000" y="-3" height="36.000001" fill-opacity="0.698"/></g></mask><clipPath id="fad6a52957"><path d="M 0.394531 0.714844 L 19.136719 0.714844 L 19.136719 19.453125 L 0.394531 19.453125 Z M 0.394531 0.714844 " clip-rule="nonzero"/></clipPath><clipPath id="f913a4b34b"><rect x="0" width="20" y="0" height="20"/></clipPath><mask id="d229eae588"><g filter="url(#34859a4e64)"><rect x="-11.25" width="135" fill="#000000" y="-3" height="36.000001" fill-opacity="0.698"/></g></mask><clipPath id="8d5ab52978"><path d="M 0.644531 0.714844 L 19.386719 0.714844 L 19.386719 19.453125 L 0.644531 19.453125 Z M 0.644531 0.714844 " clip-rule="nonzero"/></clipPath><clipPath id="e82e9a34f8"><rect x="0" width="20" y="0" height="20"/></clipPath><clipPath id="57f44d03ea"><path d="M 6.894531 2.964844 L 25.636719 2.964844 L 25.636719 21.703125 L 6.894531 21.703125 Z M 6.894531 2.964844 " clip-rule="nonzero"/></clipPath></defs><g mask="url(#c758c286e6)"><g transform="matrix(1, 0, 0, 1, 8, 3)"><g clip-path="url(#f913a4b34b)"><path fill="#2b46bd" d="M 10.65625 7.398438 C 11.015625 7.164062 11.117188 6.679688 10.882812 6.320312 C 10.648438 5.960938 10.164062 5.859375 9.804688 6.09375 C 9.445312 6.328125 9.34375 6.8125 9.578125 7.171875 C 9.8125 7.53125 10.296875 7.632812 10.65625 7.398438 " fill-opacity="1" fill-rule="nonzero"/><g clip-path="url(#fad6a52957)"><path fill="#2b46bd" d="M 17.339844 4.570312 C 17.460938 4.273438 17.710938 3.726562 18.105469 3.085938 C 18.105469 3.085938 16.882812 4.035156 15.960938 5.566406 C 14.433594 8.105469 12.289062 11.410156 8.4375 9.183594 C 8.554688 9.070312 8.671875 8.957031 8.792969 8.84375 C 9.023438 8.625 9.265625 8.410156 9.515625 8.195312 C 10.023438 8.449219 10.628906 8.417969 11.113281 8.097656 C 11.195312 8.046875 11.269531 7.988281 11.339844 7.921875 C 11.910156 7.382812 12.011719 6.519531 11.582031 5.863281 C 11.097656 5.117188 10.09375 4.90625 9.347656 5.394531 C 9.265625 5.445312 9.191406 5.503906 9.121094 5.570312 C 8.851562 5.824219 8.683594 6.152344 8.632812 6.515625 C 8.191406 6.84375 7.761719 7.191406 7.347656 7.554688 C 7.699219 2.410156 12.140625 2.066406 15.207031 2.453125 C 13.671875 1.359375 11.792969 0.714844 9.765625 0.714844 C 4.589844 0.714844 0.394531 4.910156 0.394531 10.082031 C 0.394531 12.09375 1.027344 13.957031 2.105469 15.484375 C 3.019531 13.015625 4.671875 10.503906 6.976562 8.332031 C 7.613281 7.730469 8.269531 7.1875 8.941406 6.691406 C 8.960938 6.289062 9.164062 5.902344 9.527344 5.667969 C 10.121094 5.277344 10.921875 5.445312 11.308594 6.042969 C 11.699219 6.636719 11.53125 7.4375 10.933594 7.824219 C 10.476562 8.125 9.902344 8.09375 9.484375 7.796875 C 9.171875 8.054688 8.867188 8.324219 8.566406 8.605469 C 5.859375 11.160156 4.117188 14.214844 3.507812 17.058594 C 3.707031 17.234375 3.910156 17.402344 4.121094 17.5625 C 4.285156 17.6875 4.453125 17.804688 4.625 17.917969 C 4.757812 15.65625 5.933594 13.082031 7.988281 10.882812 C 6.089844 13.324219 5.152344 16.058594 5.347656 18.347656 C 6.664062 19.054688 8.167969 19.453125 9.765625 19.453125 C 14.941406 19.453125 19.136719 15.257812 19.136719 10.082031 C 19.136719 8.023438 18.46875 6.117188 17.339844 4.570312 " fill-opacity="1" fill-rule="nonzero"/></g></g></g></g><g mask="url(#d229eae588)"><g transform="matrix(1, 0, 0, 1, 7, 3)"><g clip-path="url(#e82e9a34f8)"><path fill="#ffffff" d="M 10.90625 7.398438 C 11.265625 7.164062 11.367188 6.679688 11.132812 6.320312 C 10.898438 5.960938 10.414062 5.859375 10.054688 6.09375 C 9.695312 6.328125 9.59375 6.8125 9.828125 7.171875 C 10.0625 7.53125 10.546875 7.632812 10.90625 7.398438 " fill-opacity="1" fill-rule="nonzero"/><g clip-path="url(#8d5ab52978)"><path fill="#ffffff" d="M 17.589844 4.570312 C 17.714844 4.273438 17.960938 3.726562 18.355469 3.085938 C 18.355469 3.085938 17.132812 4.035156 16.210938 5.566406 C 14.683594 8.105469 12.539062 11.410156 8.691406 9.183594 C 8.804688 9.070312 8.921875 8.957031 9.042969 8.84375 C 9.273438 8.625 9.515625 8.410156 9.765625 8.195312 C 10.273438 8.449219 10.878906 8.417969 11.363281 8.097656 C 11.445312 8.046875 11.519531 7.988281 11.589844 7.921875 C 12.160156 7.382812 12.261719 6.519531 11.832031 5.863281 C 11.347656 5.117188 10.34375 4.90625 9.597656 5.394531 C 9.515625 5.445312 9.441406 5.503906 9.371094 5.570312 C 9.105469 5.824219 8.933594 6.152344 8.882812 6.515625 C 8.441406 6.84375 8.011719 7.191406 7.597656 7.554688 C 7.949219 2.410156 12.390625 2.066406 15.457031 2.453125 C 13.921875 1.359375 12.042969 0.714844 10.015625 0.714844 C 4.839844 0.714844 0.644531 4.910156 0.644531 10.082031 C 0.644531 12.09375 1.277344 13.957031 2.359375 15.484375 C 3.269531 13.015625 4.921875 10.503906 7.226562 8.332031 C 7.863281 7.730469 8.519531 7.1875 9.195312 6.691406 C 9.210938 6.289062 9.414062 5.902344 9.777344 5.667969 C 10.371094 5.277344 11.171875 5.445312 11.558594 6.042969 C 11.949219 6.636719 11.78125 7.4375 11.183594 7.824219 C 10.730469 8.125 10.152344 8.09375 9.734375 7.796875 C 9.421875 8.054688 9.117188 8.324219 8.816406 8.605469 C 6.109375 11.160156 4.367188 14.214844 3.761719 17.058594 C 3.957031 17.234375 4.160156 17.402344 4.371094 17.5625 C 4.535156 17.6875 4.703125 17.804688 4.875 17.917969 C 5.007812 15.65625 6.183594 13.082031 8.242188 10.882812 C 6.339844 13.324219 5.402344 16.058594 5.597656 18.347656 C 6.914062 19.054688 8.417969 19.453125 10.015625 19.453125 C 15.191406 19.453125 19.386719 15.257812 19.386719 10.082031 C 19.386719 8.023438 18.71875 6.117188 17.589844 4.570312 " fill-opacity="1" fill-rule="nonzero"/></g></g></g></g><path fill="#1d7151" d="M 17.15625 9.648438 C 17.515625 9.414062 17.617188 8.929688 17.382812 8.570312 C 17.148438 8.210938 16.664062 8.109375 16.304688 8.34375 C 15.945312 8.578125 15.84375 9.0625 16.078125 9.421875 C 16.3125 9.78125 16.796875 9.882812 17.15625 9.648438 " fill-opacity="1" fill-rule="nonzero"/><g clip-path="url(#57f44d03ea)"><path fill="#1d7151" d="M 23.839844 6.820312 C 23.964844 6.523438 24.210938 5.976562 24.605469 5.335938 C 24.605469 5.335938 23.382812 6.285156 22.460938 7.816406 C 20.933594 10.355469 18.789062 13.660156 14.941406 11.4375 C 15.054688 11.320312 15.171875 11.207031 15.292969 11.09375 C 15.523438 10.878906 15.765625 10.660156 16.015625 10.445312 C 16.523438 10.699219 17.128906 10.667969 17.613281 10.347656 C 17.695312 10.296875 17.769531 10.238281 17.839844 10.171875 C 18.410156 9.632812 18.511719 8.769531 18.085938 8.113281 C 17.597656 7.367188 16.59375 7.15625 15.847656 7.644531 C 15.765625 7.695312 15.691406 7.753906 15.621094 7.820312 C 15.355469 8.074219 15.183594 8.402344 15.132812 8.765625 C 14.691406 9.09375 14.261719 9.441406 13.847656 9.804688 C 14.199219 4.660156 18.640625 4.316406 21.707031 4.703125 C 20.171875 3.609375 18.296875 2.964844 16.265625 2.964844 C 11.089844 2.964844 6.894531 7.160156 6.894531 12.335938 C 6.894531 14.34375 7.53125 16.207031 8.609375 17.734375 C 9.519531 15.265625 11.171875 12.753906 13.476562 10.582031 C 14.113281 9.984375 14.769531 9.4375 15.445312 8.941406 C 15.460938 8.539062 15.664062 8.152344 16.027344 7.917969 C 16.621094 7.527344 17.421875 7.695312 17.808594 8.292969 C 18.199219 8.886719 18.03125 9.6875 17.4375 10.074219 C 16.980469 10.375 16.402344 10.34375 15.984375 10.046875 C 15.675781 10.304688 15.367188 10.574219 15.070312 10.855469 C 12.359375 13.410156 10.617188 16.464844 10.011719 19.308594 C 10.207031 19.484375 10.410156 19.652344 10.621094 19.8125 C 10.785156 19.9375 10.953125 20.054688 11.125 20.167969 C 11.257812 17.90625 12.433594 15.332031 14.492188 13.132812 C 12.589844 15.574219 11.652344 18.308594 11.847656 20.597656 C 13.164062 21.304688 14.667969 21.703125 16.265625 21.703125 C 21.441406 21.703125 25.636719 17.507812 25.636719 12.335938 C 25.636719 10.273438 24.96875 8.367188 23.839844 6.820312 " fill-opacity="1" fill-rule="nonzero"/></g><g fill="#5ce1e6" fill-opacity="0.302"><g transform="translate(29.098947, 20.987151)"><g><path d="M 4.296875 -11.214844 C 4.296875 -11.355469 4.261719 -11.5 4.207031 -11.675781 C 4.152344 -11.835938 4.066406 -11.996094 3.957031 -12.140625 C 3.832031 -12.28125 3.671875 -12.390625 3.492188 -12.496094 C 3.316406 -12.585938 3.085938 -12.640625 2.835938 -12.640625 C 2.585938 -12.640625 2.351562 -12.585938 2.175781 -12.496094 C 1.996094 -12.40625 1.835938 -12.300781 1.710938 -12.15625 C 1.570312 -12.015625 1.480469 -11.871094 1.410156 -11.710938 C 1.335938 -11.535156 1.320312 -11.375 1.320312 -11.214844 L 1.320312 -1.410156 C 1.320312 -1.246094 1.335938 -1.085938 1.410156 -0.925781 C 1.480469 -0.75 1.570312 -0.605469 1.695312 -0.464844 C 1.816406 -0.320312 1.980469 -0.195312 2.15625 -0.105469 C 2.335938 -0.0195312 2.566406 0.0195312 2.816406 0.0195312 L 8.058594 0.0195312 C 8.308594 0.0195312 8.519531 -0.0195312 8.71875 -0.105469 C 8.894531 -0.195312 9.054688 -0.304688 9.179688 -0.445312 C 9.304688 -0.589844 9.394531 -0.730469 9.464844 -0.910156 C 9.519531 -1.070312 9.554688 -1.230469 9.554688 -1.390625 C 9.554688 -1.550781 9.519531 -1.710938 9.449219 -1.890625 C 9.375 -2.050781 9.289062 -2.191406 9.164062 -2.335938 C 9.019531 -2.460938 8.859375 -2.566406 8.679688 -2.65625 C 8.503906 -2.746094 8.289062 -2.796875 8.039062 -2.796875 L 4.527344 -2.796875 C 4.492188 -2.796875 4.4375 -2.816406 4.386719 -2.851562 C 4.3125 -2.886719 4.296875 -2.960938 4.296875 -3.066406 Z M 4.296875 -11.214844 "/></g></g></g><g fill="#5ce1e6" fill-opacity="0.302"><g transform="translate(40.020021, 20.987151)"><g><path d="M 8.644531 -11.535156 C 8.539062 -11.820312 8.324219 -12.070312 8.039062 -12.300781 C 7.738281 -12.515625 7.378906 -12.640625 6.96875 -12.640625 C 6.542969 -12.640625 6.1875 -12.515625 5.882812 -12.300781 C 5.578125 -12.085938 5.367188 -11.820312 5.257812 -11.535156 L 1.425781 -1.90625 C 1.355469 -1.746094 1.335938 -1.585938 1.335938 -1.410156 C 1.335938 -1.246094 1.355469 -1.085938 1.425781 -0.925781 C 1.496094 -0.75 1.585938 -0.605469 1.710938 -0.480469 C 1.835938 -0.339844 1.996094 -0.230469 2.191406 -0.144531 C 2.371094 -0.0546875 2.585938 -0.0195312 2.835938 -0.0195312 C 3.191406 -0.0195312 3.492188 -0.105469 3.742188 -0.304688 C 3.976562 -0.480469 4.136719 -0.695312 4.242188 -0.945312 L 5.242188 -3.457031 C 5.257812 -3.492188 5.292969 -3.53125 5.332031 -3.566406 C 5.367188 -3.582031 5.417969 -3.601562 5.453125 -3.601562 L 8.46875 -3.601562 C 8.539062 -3.601562 8.609375 -3.546875 8.679688 -3.457031 L 9.660156 -0.945312 C 9.75 -0.695312 9.910156 -0.480469 10.160156 -0.304688 C 10.394531 -0.105469 10.695312 -0.0195312 11.070312 -0.0195312 C 11.320312 -0.0195312 11.535156 -0.0546875 11.710938 -0.144531 C 11.890625 -0.230469 12.050781 -0.339844 12.195312 -0.480469 C 12.316406 -0.605469 12.40625 -0.75 12.480469 -0.925781 C 12.550781 -1.085938 12.585938 -1.246094 12.585938 -1.410156 C 12.585938 -1.585938 12.550781 -1.765625 12.480469 -1.90625 Z M 6.953125 -7.71875 C 6.988281 -7.613281 7.023438 -7.523438 7.058594 -7.433594 C 7.09375 -7.328125 7.148438 -7.238281 7.183594 -7.128906 C 7.21875 -7.003906 7.273438 -6.898438 7.328125 -6.792969 C 7.363281 -6.683594 7.398438 -6.578125 7.433594 -6.488281 C 7.453125 -6.433594 7.46875 -6.398438 7.46875 -6.398438 L 6.398438 -6.398438 C 6.417969 -6.417969 6.433594 -6.433594 6.433594 -6.472656 C 6.507812 -6.683594 6.597656 -6.882812 6.683594 -7.09375 C 6.757812 -7.308594 6.84375 -7.503906 6.953125 -7.71875 Z M 6.953125 -7.71875 "/></g></g></g><g fill="#5ce1e6" fill-opacity="0.302"><g transform="translate(53.916323, 20.987151)"><g><path d="M 7.09375 -9.804688 L 1.570312 -2.210938 C 1.390625 -1.941406 1.320312 -1.675781 1.320312 -1.425781 C 1.320312 -1.265625 1.335938 -1.105469 1.410156 -0.945312 C 1.480469 -0.765625 1.570312 -0.625 1.695312 -0.480469 C 1.816406 -0.339844 1.980469 -0.214844 2.15625 -0.125 C 2.335938 -0.0351562 2.566406 0 2.816406 0 L 9.964844 0 C 10.214844 0 10.429688 -0.0351562 10.605469 -0.125 C 10.785156 -0.214844 10.945312 -0.320312 11.070312 -0.464844 C 11.195312 -0.605469 11.285156 -0.75 11.355469 -0.925781 C 11.425781 -1.085938 11.460938 -1.246094 11.460938 -1.410156 C 11.460938 -1.570312 11.425781 -1.730469 11.355469 -1.90625 C 11.285156 -2.066406 11.195312 -2.210938 11.070312 -2.351562 C 10.925781 -2.476562 10.765625 -2.585938 10.589844 -2.675781 C 10.410156 -2.761719 10.195312 -2.816406 9.945312 -2.816406 L 5.667969 -2.816406 L 11.175781 -10.394531 C 11.355469 -10.640625 11.445312 -10.910156 11.445312 -11.195312 C 11.445312 -11.335938 11.410156 -11.480469 11.355469 -11.660156 C 11.300781 -11.820312 11.214844 -11.980469 11.105469 -12.121094 C 10.980469 -12.265625 10.820312 -12.371094 10.640625 -12.480469 C 10.464844 -12.585938 10.234375 -12.640625 9.984375 -12.640625 L 2.835938 -12.640625 C 2.585938 -12.640625 2.351562 -12.585938 2.175781 -12.496094 C 1.996094 -12.40625 1.835938 -12.300781 1.710938 -12.15625 C 1.570312 -12.015625 1.480469 -11.871094 1.410156 -11.710938 C 1.335938 -11.535156 1.320312 -11.375 1.320312 -11.214844 C 1.320312 -11.050781 1.335938 -10.890625 1.410156 -10.730469 C 1.480469 -10.554688 1.570312 -10.410156 1.695312 -10.269531 C 1.816406 -10.125 1.980469 -10.019531 2.15625 -9.929688 C 2.335938 -9.839844 2.566406 -9.804688 2.816406 -9.804688 Z M 7.09375 -9.804688 "/></g></g></g><g fill="#5ce1e6" fill-opacity="0.302"><g transform="translate(66.743679, 20.987151)"><g><path d="M 8.71875 -11.195312 L 8.753906 -4.742188 C 8.753906 -4.492188 8.699219 -4.242188 8.609375 -4.011719 C 8.519531 -3.777344 8.394531 -3.582031 8.21875 -3.40625 C 8.039062 -3.226562 7.84375 -3.101562 7.613281 -2.996094 C 7.378906 -2.886719 7.128906 -2.835938 6.863281 -2.835938 L 6.257812 -2.835938 C 5.972656 -2.835938 5.722656 -2.886719 5.492188 -2.996094 C 5.257812 -3.101562 5.0625 -3.226562 4.882812 -3.40625 C 4.707031 -3.582031 4.582031 -3.777344 4.492188 -4.011719 C 4.386719 -4.242188 4.351562 -4.492188 4.351562 -4.742188 L 4.351562 -11.230469 C 4.351562 -11.390625 4.3125 -11.550781 4.242188 -11.730469 C 4.171875 -11.890625 4.082031 -12.03125 3.957031 -12.175781 C 3.816406 -12.300781 3.65625 -12.40625 3.476562 -12.496094 C 3.296875 -12.585938 3.085938 -12.640625 2.835938 -12.640625 C 2.585938 -12.640625 2.351562 -12.585938 2.175781 -12.496094 C 1.996094 -12.40625 1.835938 -12.300781 1.710938 -12.15625 C 1.570312 -12.015625 1.480469 -11.871094 1.410156 -11.710938 C 1.335938 -11.535156 1.320312 -11.375 1.320312 -11.214844 L 1.320312 -4.722656 C 1.320312 -4.152344 1.425781 -3.601562 1.65625 -3.03125 C 1.871094 -2.460938 2.191406 -1.960938 2.621094 -1.515625 C 3.046875 -1.050781 3.566406 -0.695312 4.171875 -0.410156 C 4.777344 -0.125 5.453125 0.0195312 6.238281 0.0195312 L 6.84375 0.0195312 C 7.613281 0.0195312 8.308594 -0.125 8.914062 -0.410156 C 9.519531 -0.695312 10.019531 -1.050781 10.445312 -1.515625 C 10.855469 -1.960938 11.175781 -2.460938 11.410156 -3.03125 C 11.621094 -3.601562 11.746094 -4.152344 11.746094 -4.722656 L 11.746094 -11.214844 C 11.746094 -11.375 11.710938 -11.535156 11.640625 -11.710938 C 11.570312 -11.871094 11.480469 -12.015625 11.355469 -12.15625 C 11.214844 -12.28125 11.050781 -12.390625 10.875 -12.480469 C 10.695312 -12.566406 10.480469 -12.621094 10.234375 -12.621094 C 9.984375 -12.621094 9.75 -12.566406 9.574219 -12.480469 C 9.394531 -12.390625 9.234375 -12.28125 9.109375 -12.140625 C 8.964844 -11.996094 8.878906 -11.855469 8.804688 -11.695312 C 8.734375 -11.515625 8.71875 -11.355469 8.71875 -11.195312 Z M 8.71875 -11.195312 "/></g></g></g><g fill="#5ce1e6" fill-opacity="0.302"><g transform="translate(79.856087, 20.987151)"><g><path d="M 4.296875 -11.214844 C 4.296875 -11.355469 4.261719 -11.5 4.207031 -11.675781 C 4.152344 -11.835938 4.066406 -11.996094 3.957031 -12.140625 C 3.832031 -12.28125 3.671875 -12.390625 3.492188 -12.496094 C 3.316406 -12.585938 3.085938 -12.640625 2.835938 -12.640625 C 2.585938 -12.640625 2.351562 -12.585938 2.175781 -12.496094 C 1.996094 -12.40625 1.835938 -12.300781 1.710938 -12.15625 C 1.570312 -12.015625 1.480469 -11.871094 1.410156 -11.710938 C 1.335938 -11.535156 1.320312 -11.375 1.320312 -11.214844 L 1.320312 -1.410156 C 1.320312 -1.246094 1.335938 -1.085938 1.410156 -0.925781 C 1.480469 -0.75 1.570312 -0.605469 1.695312 -0.464844 C 1.816406 -0.320312 1.980469 -0.195312 2.15625 -0.105469 C 2.335938 -0.0195312 2.566406 0.0195312 2.816406 0.0195312 L 8.058594 0.0195312 C 8.308594 0.0195312 8.519531 -0.0195312 8.71875 -0.105469 C 8.894531 -0.195312 9.054688 -0.304688 9.179688 -0.445312 C 9.304688 -0.589844 9.394531 -0.730469 9.464844 -0.910156 C 9.519531 -1.070312 9.554688 -1.230469 9.554688 -1.390625 C 9.554688 -1.550781 9.519531 -1.710938 9.449219 -1.890625 C 9.375 -2.050781 9.289062 -2.191406 9.164062 -2.335938 C 9.019531 -2.460938 8.859375 -2.566406 8.679688 -2.65625 C 8.503906 -2.746094 8.289062 -2.796875 8.039062 -2.796875 L 4.527344 -2.796875 C 4.492188 -2.796875 4.4375 -2.816406 4.386719 -2.851562 C 4.3125 -2.886719 4.296875 -2.960938 4.296875 -3.066406 Z M 4.296875 -11.214844 "/></g></g></g><g fill="#5ce1e6" fill-opacity="0.302"><g transform="translate(90.777161, 20.987151)"><g><path d="M 8.644531 -11.535156 C 8.539062 -11.820312 8.324219 -12.070312 8.039062 -12.300781 C 7.738281 -12.515625 7.378906 -12.640625 6.96875 -12.640625 C 6.542969 -12.640625 6.1875 -12.515625 5.882812 -12.300781 C 5.578125 -12.085938 5.367188 -11.820312 5.257812 -11.535156 L 1.425781 -1.90625 C 1.355469 -1.746094 1.335938 -1.585938 1.335938 -1.410156 C 1.335938 -1.246094 1.355469 -1.085938 1.425781 -0.925781 C 1.496094 -0.75 1.585938 -0.605469 1.710938 -0.480469 C 1.835938 -0.339844 1.996094 -0.230469 2.191406 -0.144531 C 2.371094 -0.0546875 2.585938 -0.0195312 2.835938 -0.0195312 C 3.191406 -0.0195312 3.492188 -0.105469 3.742188 -0.304688 C 3.976562 -0.480469 4.136719 -0.695312 4.242188 -0.945312 L 5.242188 -3.457031 C 5.257812 -3.492188 5.292969 -3.53125 5.332031 -3.566406 C 5.367188 -3.582031 5.417969 -3.601562 5.453125 -3.601562 L 8.46875 -3.601562 C 8.539062 -3.601562 8.609375 -3.546875 8.679688 -3.457031 L 9.660156 -0.945312 C 9.75 -0.695312 9.910156 -0.480469 10.160156 -0.304688 C 10.394531 -0.105469 10.695312 -0.0195312 11.070312 -0.0195312 C 11.320312 -0.0195312 11.535156 -0.0546875 11.710938 -0.144531 C 11.890625 -0.230469 12.050781 -0.339844 12.195312 -0.480469 C 12.316406 -0.605469 12.40625 -0.75 12.480469 -0.925781 C 12.550781 -1.085938 12.585938 -1.246094 12.585938 -1.410156 C 12.585938 -1.585938 12.550781 -1.765625 12.480469 -1.90625 Z M 6.953125 -7.71875 C 6.988281 -7.613281 7.023438 -7.523438 7.058594 -7.433594 C 7.09375 -7.328125 7.148438 -7.238281 7.183594 -7.128906 C 7.21875 -7.003906 7.273438 -6.898438 7.328125 -6.792969 C 7.363281 -6.683594 7.398438 -6.578125 7.433594 -6.488281 C 7.453125 -6.433594 7.46875 -6.398438 7.46875 -6.398438 L 6.398438 -6.398438 C 6.417969 -6.417969 6.433594 -6.433594 6.433594 -6.472656 C 6.507812 -6.683594 6.597656 -6.882812 6.683594 -7.09375 C 6.757812 -7.308594 6.84375 -7.503906 6.953125 -7.71875 Z M 6.953125 -7.71875 "/></g></g></g><g fill="#5ce1e6" fill-opacity="0.502"><g transform="translate(28.423134, 21.130799)"><g><path d="M 4.296875 -11.214844 C 4.296875 -11.355469 4.261719 -11.5 4.207031 -11.675781 C 4.152344 -11.835938 4.066406 -11.996094 3.957031 -12.140625 C 3.832031 -12.28125 3.671875 -12.390625 3.492188 -12.496094 C 3.316406 -12.585938 3.085938 -12.640625 2.835938 -12.640625 C 2.585938 -12.640625 2.351562 -12.585938 2.175781 -12.496094 C 1.996094 -12.40625 1.835938 -12.300781 1.710938 -12.15625 C 1.570312 -12.015625 1.480469 -11.871094 1.410156 -11.710938 C 1.335938 -11.535156 1.320312 -11.375 1.320312 -11.214844 L 1.320312 -1.410156 C 1.320312 -1.246094 1.335938 -1.085938 1.410156 -0.925781 C 1.480469 -0.75 1.570312 -0.605469 1.695312 -0.464844 C 1.816406 -0.320312 1.980469 -0.195312 2.15625 -0.105469 C 2.335938 -0.0195312 2.566406 0.0195312 2.816406 0.0195312 L 8.058594 0.0195312 C 8.308594 0.0195312 8.519531 -0.0195312 8.71875 -0.105469 C 8.894531 -0.195312 9.054688 -0.304688 9.179688 -0.445312 C 9.304688 -0.589844 9.394531 -0.730469 9.464844 -0.910156 C 9.519531 -1.070312 9.554688 -1.230469 9.554688 -1.390625 C 9.554688 -1.550781 9.519531 -1.710938 9.449219 -1.890625 C 9.375 -2.050781 9.289062 -2.191406 9.164062 -2.335938 C 9.019531 -2.460938 8.859375 -2.566406 8.679688 -2.65625 C 8.503906 -2.746094 8.289062 -2.796875 8.039062 -2.796875 L 4.527344 -2.796875 C 4.492188 -2.796875 4.4375 -2.816406 4.386719 -2.851562 C 4.3125 -2.886719 4.296875 -2.960938 4.296875 -3.066406 Z M 4.296875 -11.214844 "/></g></g></g><g fill="#5ce1e6" fill-opacity="0.502"><g transform="translate(39.344208, 21.130799)"><g><path d="M 8.644531 -11.535156 C 8.539062 -11.820312 8.324219 -12.070312 8.039062 -12.300781 C 7.738281 -12.515625 7.378906 -12.640625 6.96875 -12.640625 C 6.542969 -12.640625 6.1875 -12.515625 5.882812 -12.300781 C 5.578125 -12.085938 5.367188 -11.820312 5.257812 -11.535156 L 1.425781 -1.90625 C 1.355469 -1.746094 1.335938 -1.585938 1.335938 -1.410156 C 1.335938 -1.246094 1.355469 -1.085938 1.425781 -0.925781 C 1.496094 -0.75 1.585938 -0.605469 1.710938 -0.480469 C 1.835938 -0.339844 1.996094 -0.230469 2.191406 -0.144531 C 2.371094 -0.0546875 2.585938 -0.0195312 2.835938 -0.0195312 C 3.191406 -0.0195312 3.492188 -0.105469 3.742188 -0.304688 C 3.976562 -0.480469 4.136719 -0.695312 4.242188 -0.945312 L 5.242188 -3.457031 C 5.257812 -3.492188 5.292969 -3.53125 5.332031 -3.566406 C 5.367188 -3.582031 5.417969 -3.601562 5.453125 -3.601562 L 8.46875 -3.601562 C 8.539062 -3.601562 8.609375 -3.546875 8.679688 -3.457031 L 9.660156 -0.945312 C 9.75 -0.695312 9.910156 -0.480469 10.160156 -0.304688 C 10.394531 -0.105469 10.695312 -0.0195312 11.070312 -0.0195312 C 11.320312 -0.0195312 11.535156 -0.0546875 11.710938 -0.144531 C 11.890625 -0.230469 12.050781 -0.339844 12.195312 -0.480469 C 12.316406 -0.605469 12.40625 -0.75 12.480469 -0.925781 C 12.550781 -1.085938 12.585938 -1.246094 12.585938 -1.410156 C 12.585938 -1.585938 12.550781 -1.765625 12.480469 -1.90625 Z M 6.953125 -7.71875 C 6.988281 -7.613281 7.023438 -7.523438 7.058594 -7.433594 C 7.09375 -7.328125 7.148438 -7.238281 7.183594 -7.128906 C 7.21875 -7.003906 7.273438 -6.898438 7.328125 -6.792969 C 7.363281 -6.683594 7.398438 -6.578125 7.433594 -6.488281 C 7.453125 -6.433594 7.46875 -6.398438 7.46875 -6.398438 L 6.398438 -6.398438 C 6.417969 -6.417969 6.433594 -6.433594 6.433594 -6.472656 C 6.507812 -6.683594 6.597656 -6.882812 6.683594 -7.09375 C 6.757812 -7.308594 6.84375 -7.503906 6.953125 -7.71875 Z M 6.953125 -7.71875 "/></g></g></g><g fill="#5ce1e6" fill-opacity="0.502"><g transform="translate(53.24051, 21.130799)"><g><path d="M 7.09375 -9.804688 L 1.570312 -2.210938 C 1.390625 -1.941406 1.320312 -1.675781 1.320312 -1.425781 C 1.320312 -1.265625 1.335938 -1.105469 1.410156 -0.945312 C 1.480469 -0.765625 1.570312 -0.625 1.695312 -0.480469 C 1.816406 -0.339844 1.980469 -0.214844 2.15625 -0.125 C 2.335938 -0.0351562 2.566406 0 2.816406 0 L 9.964844 0 C 10.214844 0 10.429688 -0.0351562 10.605469 -0.125 C 10.785156 -0.214844 10.945312 -0.320312 11.070312 -0.464844 C 11.195312 -0.605469 11.285156 -0.75 11.355469 -0.925781 C 11.425781 -1.085938 11.460938 -1.246094 11.460938 -1.410156 C 11.460938 -1.570312 11.425781 -1.730469 11.355469 -1.90625 C 11.285156 -2.066406 11.195312 -2.210938 11.070312 -2.351562 C 10.925781 -2.476562 10.765625 -2.585938 10.589844 -2.675781 C 10.410156 -2.761719 10.195312 -2.816406 9.945312 -2.816406 L 5.667969 -2.816406 L 11.175781 -10.394531 C 11.355469 -10.640625 11.445312 -10.910156 11.445312 -11.195312 C 11.445312 -11.335938 11.410156 -11.480469 11.355469 -11.660156 C 11.300781 -11.820312 11.214844 -11.980469 11.105469 -12.121094 C 10.980469 -12.265625 10.820312 -12.371094 10.640625 -12.480469 C 10.464844 -12.585938 10.234375 -12.640625 9.984375 -12.640625 L 2.835938 -12.640625 C 2.585938 -12.640625 2.351562 -12.585938 2.175781 -12.496094 C 1.996094 -12.40625 1.835938 -12.300781 1.710938 -12.15625 C 1.570312 -12.015625 1.480469 -11.871094 1.410156 -11.710938 C 1.335938 -11.535156 1.320312 -11.375 1.320312 -11.214844 C 1.320312 -11.050781 1.335938 -10.890625 1.410156 -10.730469 C 1.480469 -10.554688 1.570312 -10.410156 1.695312 -10.269531 C 1.816406 -10.125 1.980469 -10.019531 2.15625 -9.929688 C 2.335938 -9.839844 2.566406 -9.804688 2.816406 -9.804688 Z M 7.09375 -9.804688 "/></g></g></g><g fill="#5ce1e6" fill-opacity="0.502"><g transform="translate(66.067866, 21.130799)"><g><path d="M 8.71875 -11.195312 L 8.753906 -4.742188 C 8.753906 -4.492188 8.699219 -4.242188 8.609375 -4.011719 C 8.519531 -3.777344 8.394531 -3.582031 8.21875 -3.40625 C 8.039062 -3.226562 7.84375 -3.101562 7.613281 -2.996094 C 7.378906 -2.886719 7.128906 -2.835938 6.863281 -2.835938 L 6.257812 -2.835938 C 5.972656 -2.835938 5.722656 -2.886719 5.492188 -2.996094 C 5.257812 -3.101562 5.0625 -3.226562 4.882812 -3.40625 C 4.707031 -3.582031 4.582031 -3.777344 4.492188 -4.011719 C 4.386719 -4.242188 4.351562 -4.492188 4.351562 -4.742188 L 4.351562 -11.230469 C 4.351562 -11.390625 4.3125 -11.550781 4.242188 -11.730469 C 4.171875 -11.890625 4.082031 -12.03125 3.957031 -12.175781 C 3.816406 -12.300781 3.65625 -12.40625 3.476562 -12.496094 C 3.296875 -12.585938 3.085938 -12.640625 2.835938 -12.640625 C 2.585938 -12.640625 2.351562 -12.585938 2.175781 -12.496094 C 1.996094 -12.40625 1.835938 -12.300781 1.710938 -12.15625 C 1.570312 -12.015625 1.480469 -11.871094 1.410156 -11.710938 C 1.335938 -11.535156 1.320312 -11.375 1.320312 -11.214844 L 1.320312 -4.722656 C 1.320312 -4.152344 1.425781 -3.601562 1.65625 -3.03125 C 1.871094 -2.460938 2.191406 -1.960938 2.621094 -1.515625 C 3.046875 -1.050781 3.566406 -0.695312 4.171875 -0.410156 C 4.777344 -0.125 5.453125 0.0195312 6.238281 0.0195312 L 6.84375 0.0195312 C 7.613281 0.0195312 8.308594 -0.125 8.914062 -0.410156 C 9.519531 -0.695312 10.019531 -1.050781 10.445312 -1.515625 C 10.855469 -1.960938 11.175781 -2.460938 11.410156 -3.03125 C 11.621094 -3.601562 11.746094 -4.152344 11.746094 -4.722656 L 11.746094 -11.214844 C 11.746094 -11.375 11.710938 -11.535156 11.640625 -11.710938 C 11.570312 -11.871094 11.480469 -12.015625 11.355469 -12.15625 C 11.214844 -12.28125 11.050781 -12.390625 10.875 -12.480469 C 10.695312 -12.566406 10.480469 -12.621094 10.234375 -12.621094 C 9.984375 -12.621094 9.75 -12.566406 9.574219 -12.480469 C 9.394531 -12.390625 9.234375 -12.28125 9.109375 -12.140625 C 8.964844 -11.996094 8.878906 -11.855469 8.804688 -11.695312 C 8.734375 -11.515625 8.71875 -11.355469 8.71875 -11.195312 Z M 8.71875 -11.195312 "/></g></g></g><g fill="#5ce1e6" fill-opacity="0.502"><g transform="translate(79.180274, 21.130799)"><g><path d="M 4.296875 -11.214844 C 4.296875 -11.355469 4.261719 -11.5 4.207031 -11.675781 C 4.152344 -11.835938 4.066406 -11.996094 3.957031 -12.140625 C 3.832031 -12.28125 3.671875 -12.390625 3.492188 -12.496094 C 3.316406 -12.585938 3.085938 -12.640625 2.835938 -12.640625 C 2.585938 -12.640625 2.351562 -12.585938 2.175781 -12.496094 C 1.996094 -12.40625 1.835938 -12.300781 1.710938 -12.15625 C 1.570312 -12.015625 1.480469 -11.871094 1.410156 -11.710938 C 1.335938 -11.535156 1.320312 -11.375 1.320312 -11.214844 L 1.320312 -1.410156 C 1.320312 -1.246094 1.335938 -1.085938 1.410156 -0.925781 C 1.480469 -0.75 1.570312 -0.605469 1.695312 -0.464844 C 1.816406 -0.320312 1.980469 -0.195312 2.15625 -0.105469 C 2.335938 -0.0195312 2.566406 0.0195312 2.816406 0.0195312 L 8.058594 0.0195312 C 8.308594 0.0195312 8.519531 -0.0195312 8.71875 -0.105469 C 8.894531 -0.195312 9.054688 -0.304688 9.179688 -0.445312 C 9.304688 -0.589844 9.394531 -0.730469 9.464844 -0.910156 C 9.519531 -1.070312 9.554688 -1.230469 9.554688 -1.390625 C 9.554688 -1.550781 9.519531 -1.710938 9.449219 -1.890625 C 9.375 -2.050781 9.289062 -2.191406 9.164062 -2.335938 C 9.019531 -2.460938 8.859375 -2.566406 8.679688 -2.65625 C 8.503906 -2.746094 8.289062 -2.796875 8.039062 -2.796875 L 4.527344 -2.796875 C 4.492188 -2.796875 4.4375 -2.816406 4.386719 -2.851562 C 4.3125 -2.886719 4.296875 -2.960938 4.296875 -3.066406 Z M 4.296875 -11.214844 "/></g></g></g><g fill="#5ce1e6" fill-opacity="0.502"><g transform="translate(90.101348, 21.130799)"><g><path d="M 8.644531 -11.535156 C 8.539062 -11.820312 8.324219 -12.070312 8.039062 -12.300781 C 7.738281 -12.515625 7.378906 -12.640625 6.96875 -12.640625 C 6.542969 -12.640625 6.1875 -12.515625 5.882812 -12.300781 C 5.578125 -12.085938 5.367188 -11.820312 5.257812 -11.535156 L 1.425781 -1.90625 C 1.355469 -1.746094 1.335938 -1.585938 1.335938 -1.410156 C 1.335938 -1.246094 1.355469 -1.085938 1.425781 -0.925781 C 1.496094 -0.75 1.585938 -0.605469 1.710938 -0.480469 C 1.835938 -0.339844 1.996094 -0.230469 2.191406 -0.144531 C 2.371094 -0.0546875 2.585938 -0.0195312 2.835938 -0.0195312 C 3.191406 -0.0195312 3.492188 -0.105469 3.742188 -0.304688 C 3.976562 -0.480469 4.136719 -0.695312 4.242188 -0.945312 L 5.242188 -3.457031 C 5.257812 -3.492188 5.292969 -3.53125 5.332031 -3.566406 C 5.367188 -3.582031 5.417969 -3.601562 5.453125 -3.601562 L 8.46875 -3.601562 C 8.539062 -3.601562 8.609375 -3.546875 8.679688 -3.457031 L 9.660156 -0.945312 C 9.75 -0.695312 9.910156 -0.480469 10.160156 -0.304688 C 10.394531 -0.105469 10.695312 -0.0195312 11.070312 -0.0195312 C 11.320312 -0.0195312 11.535156 -0.0546875 11.710938 -0.144531 C 11.890625 -0.230469 12.050781 -0.339844 12.195312 -0.480469 C 12.316406 -0.605469 12.40625 -0.75 12.480469 -0.925781 C 12.550781 -1.085938 12.585938 -1.246094 12.585938 -1.410156 C 12.585938 -1.585938 12.550781 -1.765625 12.480469 -1.90625 Z M 6.953125 -7.71875 C 6.988281 -7.613281 7.023438 -7.523438 7.058594 -7.433594 C 7.09375 -7.328125 7.148438 -7.238281 7.183594 -7.128906 C 7.21875 -7.003906 7.273438 -6.898438 7.328125 -6.792969 C 7.363281 -6.683594 7.398438 -6.578125 7.433594 -6.488281 C 7.453125 -6.433594 7.46875 -6.398438 7.46875 -6.398438 L 6.398438 -6.398438 C 6.417969 -6.417969 6.433594 -6.433594 6.433594 -6.472656 C 6.507812 -6.683594 6.597656 -6.882812 6.683594 -7.09375 C 6.757812 -7.308594 6.84375 -7.503906 6.953125 -7.71875 Z M 6.953125 -7.71875 "/></g></g></g><g fill="#1d7151" fill-opacity="1"><g transform="translate(27.747321, 21.274448)"><g><path d="M 4.296875 -11.214844 C 4.296875 -11.355469 4.261719 -11.5 4.207031 -11.675781 C 4.152344 -11.835938 4.066406 -11.996094 3.957031 -12.140625 C 3.832031 -12.28125 3.671875 -12.390625 3.492188 -12.496094 C 3.316406 -12.585938 3.085938 -12.640625 2.835938 -12.640625 C 2.585938 -12.640625 2.351562 -12.585938 2.175781 -12.496094 C 1.996094 -12.40625 1.835938 -12.300781 1.710938 -12.15625 C 1.570312 -12.015625 1.480469 -11.871094 1.410156 -11.710938 C 1.335938 -11.535156 1.320312 -11.375 1.320312 -11.214844 L 1.320312 -1.410156 C 1.320312 -1.246094 1.335938 -1.085938 1.410156 -0.925781 C 1.480469 -0.75 1.570312 -0.605469 1.695312 -0.464844 C 1.816406 -0.320312 1.980469 -0.195312 2.15625 -0.105469 C 2.335938 -0.0195312 2.566406 0.0195312 2.816406 0.0195312 L 8.058594 0.0195312 C 8.308594 0.0195312 8.519531 -0.0195312 8.71875 -0.105469 C 8.894531 -0.195312 9.054688 -0.304688 9.179688 -0.445312 C 9.304688 -0.589844 9.394531 -0.730469 9.464844 -0.910156 C 9.519531 -1.070312 9.554688 -1.230469 9.554688 -1.390625 C 9.554688 -1.550781 9.519531 -1.710938 9.449219 -1.890625 C 9.375 -2.050781 9.289062 -2.191406 9.164062 -2.335938 C 9.019531 -2.460938 8.859375 -2.566406 8.679688 -2.65625 C 8.503906 -2.746094 8.289062 -2.796875 8.039062 -2.796875 L 4.527344 -2.796875 C 4.492188 -2.796875 4.4375 -2.816406 4.386719 -2.851562 C 4.3125 -2.886719 4.296875 -2.960938 4.296875 -3.066406 Z M 4.296875 -11.214844 "/></g></g></g><g fill="#1d7151" fill-opacity="1"><g transform="translate(38.668395, 21.274448)"><g><path d="M 8.644531 -11.535156 C 8.539062 -11.820312 8.324219 -12.070312 8.039062 -12.300781 C 7.738281 -12.515625 7.378906 -12.640625 6.96875 -12.640625 C 6.542969 -12.640625 6.1875 -12.515625 5.882812 -12.300781 C 5.578125 -12.085938 5.367188 -11.820312 5.257812 -11.535156 L 1.425781 -1.90625 C 1.355469 -1.746094 1.335938 -1.585938 1.335938 -1.410156 C 1.335938 -1.246094 1.355469 -1.085938 1.425781 -0.925781 C 1.496094 -0.75 1.585938 -0.605469 1.710938 -0.480469 C 1.835938 -0.339844 1.996094 -0.230469 2.191406 -0.144531 C 2.371094 -0.0546875 2.585938 -0.0195312 2.835938 -0.0195312 C 3.191406 -0.0195312 3.492188 -0.105469 3.742188 -0.304688 C 3.976562 -0.480469 4.136719 -0.695312 4.242188 -0.945312 L 5.242188 -3.457031 C 5.257812 -3.492188 5.292969 -3.53125 5.332031 -3.566406 C 5.367188 -3.582031 5.417969 -3.601562 5.453125 -3.601562 L 8.46875 -3.601562 C 8.539062 -3.601562 8.609375 -3.546875 8.679688 -3.457031 L 9.660156 -0.945312 C 9.75 -0.695312 9.910156 -0.480469 10.160156 -0.304688 C 10.394531 -0.105469 10.695312 -0.0195312 11.070312 -0.0195312 C 11.320312 -0.0195312 11.535156 -0.0546875 11.710938 -0.144531 C 11.890625 -0.230469 12.050781 -0.339844 12.195312 -0.480469 C 12.316406 -0.605469 12.40625 -0.75 12.480469 -0.925781 C 12.550781 -1.085938 12.585938 -1.246094 12.585938 -1.410156 C 12.585938 -1.585938 12.550781 -1.765625 12.480469 -1.90625 Z M 6.953125 -7.71875 C 6.988281 -7.613281 7.023438 -7.523438 7.058594 -7.433594 C 7.09375 -7.328125 7.148438 -7.238281 7.183594 -7.128906 C 7.21875 -7.003906 7.273438 -6.898438 7.328125 -6.792969 C 7.363281 -6.683594 7.398438 -6.578125 7.433594 -6.488281 C 7.453125 -6.433594 7.46875 -6.398438 7.46875 -6.398438 L 6.398438 -6.398438 C 6.417969 -6.417969 6.433594 -6.433594 6.433594 -6.472656 C 6.507812 -6.683594 6.597656 -6.882812 6.683594 -7.09375 C 6.757812 -7.308594 6.84375 -7.503906 6.953125 -7.71875 Z M 6.953125 -7.71875 "/></g></g></g><g fill="#1d7151" fill-opacity="1"><g transform="translate(52.564697, 21.274448)"><g><path d="M 7.09375 -9.804688 L 1.570312 -2.210938 C 1.390625 -1.941406 1.320312 -1.675781 1.320312 -1.425781 C 1.320312 -1.265625 1.335938 -1.105469 1.410156 -0.945312 C 1.480469 -0.765625 1.570312 -0.625 1.695312 -0.480469 C 1.816406 -0.339844 1.980469 -0.214844 2.15625 -0.125 C 2.335938 -0.0351562 2.566406 0 2.816406 0 L 9.964844 0 C 10.214844 0 10.429688 -0.0351562 10.605469 -0.125 C 10.785156 -0.214844 10.945312 -0.320312 11.070312 -0.464844 C 11.195312 -0.605469 11.285156 -0.75 11.355469 -0.925781 C 11.425781 -1.085938 11.460938 -1.246094 11.460938 -1.410156 C 11.460938 -1.570312 11.425781 -1.730469 11.355469 -1.90625 C 11.285156 -2.066406 11.195312 -2.210938 11.070312 -2.351562 C 10.925781 -2.476562 10.765625 -2.585938 10.589844 -2.675781 C 10.410156 -2.761719 10.195312 -2.816406 9.945312 -2.816406 L 5.667969 -2.816406 L 11.175781 -10.394531 C 11.355469 -10.640625 11.445312 -10.910156 11.445312 -11.195312 C 11.445312 -11.335938 11.410156 -11.480469 11.355469 -11.660156 C 11.300781 -11.820312 11.214844 -11.980469 11.105469 -12.121094 C 10.980469 -12.265625 10.820312 -12.371094 10.640625 -12.480469 C 10.464844 -12.585938 10.234375 -12.640625 9.984375 -12.640625 L 2.835938 -12.640625 C 2.585938 -12.640625 2.351562 -12.585938 2.175781 -12.496094 C 1.996094 -12.40625 1.835938 -12.300781 1.710938 -12.15625 C 1.570312 -12.015625 1.480469 -11.871094 1.410156 -11.710938 C 1.335938 -11.535156 1.320312 -11.375 1.320312 -11.214844 C 1.320312 -11.050781 1.335938 -10.890625 1.410156 -10.730469 C 1.480469 -10.554688 1.570312 -10.410156 1.695312 -10.269531 C 1.816406 -10.125 1.980469 -10.019531 2.15625 -9.929688 C 2.335938 -9.839844 2.566406 -9.804688 2.816406 -9.804688 Z M 7.09375 -9.804688 "/></g></g></g><g fill="#1d7151" fill-opacity="1"><g transform="translate(65.392053, 21.274448)"><g><path d="M 8.71875 -11.195312 L 8.753906 -4.742188 C 8.753906 -4.492188 8.699219 -4.242188 8.609375 -4.011719 C 8.519531 -3.777344 8.394531 -3.582031 8.21875 -3.40625 C 8.039062 -3.226562 7.84375 -3.101562 7.613281 -2.996094 C 7.378906 -2.886719 7.128906 -2.835938 6.863281 -2.835938 L 6.257812 -2.835938 C 5.972656 -2.835938 5.722656 -2.886719 5.492188 -2.996094 C 5.257812 -3.101562 5.0625 -3.226562 4.882812 -3.40625 C 4.707031 -3.582031 4.582031 -3.777344 4.492188 -4.011719 C 4.386719 -4.242188 4.351562 -4.492188 4.351562 -4.742188 L 4.351562 -11.230469 C 4.351562 -11.390625 4.3125 -11.550781 4.242188 -11.730469 C 4.171875 -11.890625 4.082031 -12.03125 3.957031 -12.175781 C 3.816406 -12.300781 3.65625 -12.40625 3.476562 -12.496094 C 3.296875 -12.585938 3.085938 -12.640625 2.835938 -12.640625 C 2.585938 -12.640625 2.351562 -12.585938 2.175781 -12.496094 C 1.996094 -12.40625 1.835938 -12.300781 1.710938 -12.15625 C 1.570312 -12.015625 1.480469 -11.871094 1.410156 -11.710938 C 1.335938 -11.535156 1.320312 -11.375 1.320312 -11.214844 L 1.320312 -4.722656 C 1.320312 -4.152344 1.425781 -3.601562 1.65625 -3.03125 C 1.871094 -2.460938 2.191406 -1.960938 2.621094 -1.515625 C 3.046875 -1.050781 3.566406 -0.695312 4.171875 -0.410156 C 4.777344 -0.125 5.453125 0.0195312 6.238281 0.0195312 L 6.84375 0.0195312 C 7.613281 0.0195312 8.308594 -0.125 8.914062 -0.410156 C 9.519531 -0.695312 10.019531 -1.050781 10.445312 -1.515625 C 10.855469 -1.960938 11.175781 -2.460938 11.410156 -3.03125 C 11.621094 -3.601562 11.746094 -4.152344 11.746094 -4.722656 L 11.746094 -11.214844 C 11.746094 -11.375 11.710938 -11.535156 11.640625 -11.710938 C 11.570312 -11.871094 11.480469 -12.015625 11.355469 -12.15625 C 11.214844 -12.28125 11.050781 -12.390625 10.875 -12.480469 C 10.695312 -12.566406 10.480469 -12.621094 10.234375 -12.621094 C 9.984375 -12.621094 9.75 -12.566406 9.574219 -12.480469 C 9.394531 -12.390625 9.234375 -12.28125 9.109375 -12.140625 C 8.964844 -11.996094 8.878906 -11.855469 8.804688 -11.695312 C 8.734375 -11.515625 8.71875 -11.355469 8.71875 -11.195312 Z M 8.71875 -11.195312 "/></g></g></g><g fill="#1d7151" fill-opacity="1"><g transform="translate(78.504461, 21.274448)"><g><path d="M 4.296875 -11.214844 C 4.296875 -11.355469 4.261719 -11.5 4.207031 -11.675781 C 4.152344 -11.835938 4.066406 -11.996094 3.957031 -12.140625 C 3.832031 -12.28125 3.671875 -12.390625 3.492188 -12.496094 C 3.316406 -12.585938 3.085938 -12.640625 2.835938 -12.640625 C 2.585938 -12.640625 2.351562 -12.585938 2.175781 -12.496094 C 1.996094 -12.40625 1.835938 -12.300781 1.710938 -12.15625 C 1.570312 -12.015625 1.480469 -11.871094 1.410156 -11.710938 C 1.335938 -11.535156 1.320312 -11.375 1.320312 -11.214844 L 1.320312 -1.410156 C 1.320312 -1.246094 1.335938 -1.085938 1.410156 -0.925781 C 1.480469 -0.75 1.570312 -0.605469 1.695312 -0.464844 C 1.816406 -0.320312 1.980469 -0.195312 2.15625 -0.105469 C 2.335938 -0.0195312 2.566406 0.0195312 2.816406 0.0195312 L 8.058594 0.0195312 C 8.308594 0.0195312 8.519531 -0.0195312 8.71875 -0.105469 C 8.894531 -0.195312 9.054688 -0.304688 9.179688 -0.445312 C 9.304688 -0.589844 9.394531 -0.730469 9.464844 -0.910156 C 9.519531 -1.070312 9.554688 -1.230469 9.554688 -1.390625 C 9.554688 -1.550781 9.519531 -1.710938 9.449219 -1.890625 C 9.375 -2.050781 9.289062 -2.191406 9.164062 -2.335938 C 9.019531 -2.460938 8.859375 -2.566406 8.679688 -2.65625 C 8.503906 -2.746094 8.289062 -2.796875 8.039062 -2.796875 L 4.527344 -2.796875 C 4.492188 -2.796875 4.4375 -2.816406 4.386719 -2.851562 C 4.3125 -2.886719 4.296875 -2.960938 4.296875 -3.066406 Z M 4.296875 -11.214844 "/></g></g></g><g fill="#1d7151" fill-opacity="1"><g transform="translate(89.425535, 21.274448)"><g><path d="M 8.644531 -11.535156 C 8.539062 -11.820312 8.324219 -12.070312 8.039062 -12.300781 C 7.738281 -12.515625 7.378906 -12.640625 6.96875 -12.640625 C 6.542969 -12.640625 6.1875 -12.515625 5.882812 -12.300781 C 5.578125 -12.085938 5.367188 -11.820312 5.257812 -11.535156 L 1.425781 -1.90625 C 1.355469 -1.746094 1.335938 -1.585938 1.335938 -1.410156 C 1.335938 -1.246094 1.355469 -1.085938 1.425781 -0.925781 C 1.496094 -0.75 1.585938 -0.605469 1.710938 -0.480469 C 1.835938 -0.339844 1.996094 -0.230469 2.191406 -0.144531 C 2.371094 -0.0546875 2.585938 -0.0195312 2.835938 -0.0195312 C 3.191406 -0.0195312 3.492188 -0.105469 3.742188 -0.304688 C 3.976562 -0.480469 4.136719 -0.695312 4.242188 -0.945312 L 5.242188 -3.457031 C 5.257812 -3.492188 5.292969 -3.53125 5.332031 -3.566406 C 5.367188 -3.582031 5.417969 -3.601562 5.453125 -3.601562 L 8.46875 -3.601562 C 8.539062 -3.601562 8.609375 -3.546875 8.679688 -3.457031 L 9.660156 -0.945312 C 9.75 -0.695312 9.910156 -0.480469 10.160156 -0.304688 C 10.394531 -0.105469 10.695312 -0.0195312 11.070312 -0.0195312 C 11.320312 -0.0195312 11.535156 -0.0546875 11.710938 -0.144531 C 11.890625 -0.230469 12.050781 -0.339844 12.195312 -0.480469 C 12.316406 -0.605469 12.40625 -0.75 12.480469 -0.925781 C 12.550781 -1.085938 12.585938 -1.246094 12.585938 -1.410156 C 12.585938 -1.585938 12.550781 -1.765625 12.480469 -1.90625 Z M 6.953125 -7.71875 C 6.988281 -7.613281 7.023438 -7.523438 7.058594 -7.433594 C 7.09375 -7.328125 7.148438 -7.238281 7.183594 -7.128906 C 7.21875 -7.003906 7.273438 -6.898438 7.328125 -6.792969 C 7.363281 -6.683594 7.398438 -6.578125 7.433594 -6.488281 C 7.453125 -6.433594 7.46875 -6.398438 7.46875 -6.398438 L 6.398438 -6.398438 C 6.417969 -6.417969 6.433594 -6.433594 6.433594 -6.472656 C 6.507812 -6.683594 6.597656 -6.882812 6.683594 -7.09375 C 6.757812 -7.308594 6.84375 -7.503906 6.953125 -7.71875 Z M 6.953125 -7.71875 "/></g></g></g></svg>